<?xml version="1.0" encoding="UTF-8" standalone="no"?>
<!-- Created with Inkscape (http://www.inkscape.org/) -->

<svg
   xmlns:dc="http://purl.org/dc/elements/1.1/"
   xmlns:cc="http://creativecommons.org/ns#"
   xmlns:rdf="http://www.w3.org/1999/02/22-rdf-syntax-ns#"
   xmlns:svg="http://www.w3.org/2000/svg"
   xmlns="http://www.w3.org/2000/svg"
   xmlns:sodipodi="http://sodipodi.sourceforge.net/DTD/sodipodi-0.dtd"
   xmlns:inkscape="http://www.inkscape.org/namespaces/inkscape"
   width="709.66998"
   height="709.66998"
   id="svg2"
   version="1.1"
   inkscape:version="0.48.4 r9939"
   sodipodi:docname="team3.svg">
  <defs
     id="defs4" />
  <sodipodi:namedview
     id="base"
     pagecolor="#ffffff"
     bordercolor="#666666"
     borderopacity="1.0"
     inkscape:pageopacity="0.0"
     inkscape:pageshadow="2"
     inkscape:zoom="0.98994949"
     inkscape:cx="539.95721"
     inkscape:cy="307.12928"
     inkscape:document-units="px"
     inkscape:current-layer="layer1"
     showgrid="false"
     inkscape:window-width="1920"
     inkscape:window-height="1148"
     inkscape:window-x="0"
     inkscape:window-y="0"
     inkscape:window-maximized="1"
     fit-margin-top="2"
     fit-margin-left="2"
     fit-margin-right="2"
     fit-margin-bottom="2" />
  <metadata
     id="metadata7">
    <rdf:RDF>
      <cc:Work
         rdf:about="">
        <dc:format>image/svg+xml</dc:format>
        <dc:type
           rdf:resource="http://purl.org/dc/dcmitype/StillImage" />
        <dc:title></dc:title>
      </cc:Work>
    </rdf:RDF>
  </metadata>
  <g
     inkscape:label="Layer 1"
     inkscape:groupmode="layer"
     id="layer1"
     transform="translate(-98.92857,182.66634)">
    <path
       sodipodi:type="arc"
       style="fill:#808000;stroke:#002900;stroke-width:1;stroke-linecap:butt;stroke-miterlimit:4;stroke-opacity:1;stroke-dasharray:none;stroke-dashoffset:0"
       id="path2985"
       sodipodi:cx="229.64285"
       sodipodi:cy="222.00504"
       sodipodi:rx="40.357143"
       sodipodi:ry="40.357143"
       d="m 270,222.00504 a 40.357143,40.357143 0 1 1 -80.71429,0 40.357143,40.357143 0 1 1 80.71429,0 z"
       transform="translate(-4.2857143,-180.28571)" />
    <path
       style="fill:#008080;stroke:#000000;stroke-width:1px;stroke-linecap:butt;stroke-linejoin:miter;stroke-opacity:1"
       d="M 114.28571,278.50504 C 217.85714,160.6479 325,274.93361 325,274.93361 267.986,151.22983 205.22778,81.777 114.28571,278.50504 z"
       id="path2987"
       inkscape:connector-curvature="0"
       sodipodi:nodetypes="ccc" />
    <path
       style="fill:#800080;fill-opacity:1;stroke:#000000;stroke-width:1px;stroke-linecap:butt;stroke-linejoin:miter;stroke-opacity:1"
       d="m 142.14285,46.36218 c 80,109.28572 80,109.28572 80,109.28572 L 343.57143,42.07647 c 64.71945,51.42079 -282.388404,62.45397 -201.42858,4.28571 z"
       id="path2989"
       inkscape:connector-curvature="0"
       sodipodi:nodetypes="cccc" />
    <path
       sodipodi:type="arc"
       style="fill:#4d4d4d;fill-opacity:1;stroke:#002900;stroke-width:1;stroke-linecap:butt;stroke-miterlimit:4;stroke-opacity:1;stroke-dasharray:none;stroke-dashoffset:0"
       id="path2991"
       sodipodi:cx="119.28571"
       sodipodi:cy="504.14789"
       sodipodi:rx="17.857143"
       sodipodi:ry="8.9285717"
       d="m 137.14286,504.14789 a 17.857143,8.9285717 0 1 1 -35.71429,0 17.857143,8.9285717 0 1 1 35.71429,0 z"
       transform="translate(0,-216)" />
    <path
       sodipodi:type="arc"
       style="fill:#4d4d4d;fill-opacity:1;stroke:#002900;stroke-width:1;stroke-linecap:butt;stroke-miterlimit:4;stroke-opacity:1;stroke-dasharray:none;stroke-dashoffset:0"
       id="path2993"
       sodipodi:cx="331.42856"
       sodipodi:cy="497.71933"
       sodipodi:rx="15.714286"
       sodipodi:ry="8.9285717"
       d="m 347.14284,497.71933 a 15.714286,8.9285717 0 1 1 -31.42857,0 15.714286,8.9285717 0 1 1 31.42857,0 z"
       transform="translate(0,-216)" />
    <path
       sodipodi:type="arc"
       style="fill:#800000;stroke:#002900;stroke-width:1;stroke-linecap:butt;stroke-miterlimit:4;stroke-opacity:1;stroke-dasharray:none;stroke-dashoffset:0"
       id="path2985-3"
       sodipodi:cx="229.64285"
       sodipodi:cy="222.00504"
       sodipodi:rx="24.642859"
       sodipodi:ry="29.642859"
       d="m 254.28571,222.00504 a 24.642859,29.642859 0 1 1 -49.28572,0 24.642859,29.642859 0 1 1 49.28572,0 z"
       transform="translate(225.59575,-168.85713)" />
    <path
       style="fill:#008080;stroke:#000000;stroke-width:1px;stroke-linecap:butt;stroke-linejoin:miter;stroke-opacity:1"
       d="M 344.16717,289.93362 C 443.59843,93.41322 553.6551,263.06137 554.88146,286.36219 497.86746,162.65841 435.10924,93.20558 344.16717,289.93362 z"
       id="path2987-6"
       inkscape:connector-curvature="0"
       sodipodi:nodetypes="ccc" />
    <path
       style="fill:#800080;fill-opacity:1;stroke:#000000;stroke-width:1px;stroke-linecap:butt;stroke-linejoin:miter;stroke-opacity:1"
       d="m 352.7386,27.07647 c 80,109.28572 99.28571,140.00001 99.28571,140.00001 L 573.45289,53.50505 C 547.95245,132.31025 329.46616,85.34046 352.7386,27.07647 z"
       id="path2989-7"
       inkscape:connector-curvature="0"
       sodipodi:nodetypes="cccc" />
    <path
       transform="translate(229.88146,-204.57142)"
       sodipodi:type="arc"
       style="fill:#4d4d4d;fill-opacity:1;stroke:#002900;stroke-width:1;stroke-linecap:butt;stroke-miterlimit:4;stroke-opacity:1;stroke-dasharray:none;stroke-dashoffset:0"
       id="path2991-5"
       sodipodi:cx="119.28571"
       sodipodi:cy="504.14789"
       sodipodi:rx="17.857143"
       sodipodi:ry="8.9285717"
       d="m 137.14286,504.14789 a 17.857143,8.9285717 0 1 1 -35.71429,0 17.857143,8.9285717 0 1 1 35.71429,0 z" />
    <path
       transform="translate(229.88146,-204.57142)"
       sodipodi:type="arc"
       style="fill:#4d4d4d;fill-opacity:1;stroke:#002900;stroke-width:1;stroke-linecap:butt;stroke-miterlimit:4;stroke-opacity:1;stroke-dasharray:none;stroke-dashoffset:0"
       id="path2993-3"
       sodipodi:cx="331.42856"
       sodipodi:cy="497.71933"
       sodipodi:rx="15.714286"
       sodipodi:ry="8.9285717"
       d="m 347.14284,497.71933 a 15.714286,8.9285717 0 1 1 -31.42857,0 15.714286,8.9285717 0 1 1 31.42857,0 z" />
    <path
       sodipodi:type="arc"
       style="fill:#008000;stroke:#002900;stroke-width:1;stroke-linecap:butt;stroke-miterlimit:4;stroke-opacity:1;stroke-dasharray:none;stroke-dashoffset:0"
       id="path2985-5"
       sodipodi:cx="229.64285"
       sodipodi:cy="222.00504"
       sodipodi:rx="36.785713"
       sodipodi:ry="40.357143"
       d="m 266.42857,222.00504 a 36.785713,40.357143 0 1 1 -73.57143,0 36.785713,40.357143 0 1 1 73.57143,0 z"
       transform="translate(449.88146,-193.85714)" />
    <path
       style="fill:#008080;stroke:#000000;stroke-width:1px;stroke-linecap:butt;stroke-linejoin:miter;stroke-opacity:1"
       d="m 568.45288,264.93361 c 66.75651,-151.72686 204.3501,-9.42649 210.71429,-3.57143 -57.014,-123.70378 -119.77222,-193.1566 -210.71429,3.57143 z"
       id="path2987-62"
       inkscape:connector-curvature="0"
       sodipodi:nodetypes="ccc" />
    <path
       style="fill:#800080;stroke:#000000;stroke-width:1px;stroke-linecap:butt;stroke-linejoin:miter;stroke-opacity:1"
       d="m 596.31002,32.79076 c 80,109.28571 80,109.28571 80,109.28571 L 797.7386,28.50505 c 64.99675,94.14949 -272.39463,121.01952 -201.42858,4.28571 z"
       id="path2989-9"
       inkscape:connector-curvature="0"
       sodipodi:nodetypes="cccc" />
    <path
       transform="translate(454.16717,-229.57143)"
       sodipodi:type="arc"
       style="fill:#4d4d4d;fill-opacity:1;stroke:#002900;stroke-width:1;stroke-linecap:butt;stroke-miterlimit:4;stroke-opacity:1;stroke-dasharray:none;stroke-dashoffset:0"
       id="path2991-1"
       sodipodi:cx="119.28571"
       sodipodi:cy="504.14789"
       sodipodi:rx="17.857143"
       sodipodi:ry="8.9285717"
       d="m 137.14286,504.14789 a 17.857143,8.9285717 0 1 1 -35.71429,0 17.857143,8.9285717 0 1 1 35.71429,0 z" />
    <path
       transform="translate(454.16717,-229.57143)"
       sodipodi:type="arc"
       style="fill:#4d4d4d;fill-opacity:1;stroke:#002900;stroke-width:1;stroke-linecap:butt;stroke-miterlimit:4;stroke-opacity:1;stroke-dasharray:none;stroke-dashoffset:0"
       id="path2993-2"
       sodipodi:cx="331.42856"
       sodipodi:cy="497.71933"
       sodipodi:rx="15.714286"
       sodipodi:ry="8.9285717"
       d="m 347.14284,497.71933 a 15.714286,8.9285717 0 1 1 -31.42857,0 15.714286,8.9285717 0 1 1 31.42857,0 z" />
  </g>
</svg>
