<?xml version="1.0" encoding="UTF-8" standalone="no"?>
<!-- Generator: Adobe Illustrator 15.0.0, SVG Export Plug-In . SVG Version: 6.00 Build 0)  -->

<svg
   xmlns:dc="http://purl.org/dc/elements/1.1/"
   xmlns:cc="http://creativecommons.org/ns#"
   xmlns:rdf="http://www.w3.org/1999/02/22-rdf-syntax-ns#"
   xmlns:svg="http://www.w3.org/2000/svg"
   xmlns="http://www.w3.org/2000/svg"
   xmlns:sodipodi="http://sodipodi.sourceforge.net/DTD/sodipodi-0.dtd"
   xmlns:inkscape="http://www.inkscape.org/namespaces/inkscape"
   version="1.1"
   id="Layer_1"
   x="0px"
   y="0px"
   width="396.386px"
   height="351.952px"
   viewBox="0 0 396.386 351.952"
   enable-background="new 0 0 396.386 351.952"
   xml:space="preserve"
   inkscape:version="0.48.4 r9939"
   sodipodi:docname="woman-running2.svg"><metadata
     id="metadata9"><rdf:RDF><cc:Work
         rdf:about=""><dc:format>image/svg+xml</dc:format><dc:type
           rdf:resource="http://purl.org/dc/dcmitype/StillImage" /></cc:Work></rdf:RDF></metadata><defs
     id="defs7" /><sodipodi:namedview
     pagecolor="#ffffff"
     bordercolor="#666666"
     borderopacity="1"
     objecttolerance="10"
     gridtolerance="10"
     guidetolerance="10"
     inkscape:pageopacity="0"
     inkscape:pageshadow="2"
     inkscape:window-width="1920"
     inkscape:window-height="1148"
     id="namedview5"
     showgrid="false"
     inkscape:zoom="1.8965905"
     inkscape:cx="118.37465"
     inkscape:cy="185.77003"
     inkscape:window-x="0"
     inkscape:window-y="0"
     inkscape:window-maximized="1"
     inkscape:current-layer="Layer_1" /><path
     d="M283.011,305.994c-10.773-30.961-40.984-60.414-40.984-60.414l-2.016-56.358c11.394-20.906-2.439-38.229-2.439-38.229  l4.956-17.571c18.657-10.603,3.556-25.332,3.556-25.332c2.534-4.567-9.367-23.218-9.367-23.218  c-12.488-12.804-43.751-24.063-43.751-24.063l-0.062-4.539c4.466-5.249,8.479-14.519,8.479-14.519l2.99,0.885  c-2.363,17.813,20.402,22.363,20.402,22.363c15.58,1.751,20.571-13.296,20.571-13.296c-22.08,7.188-24.773-8.229-28.728-15.334  c-2.538-4.579-12.354-1.961-12.354-1.961l-2.374-0.536c0,0-0.022-2.44-0.617-3.535c-10.422-19.082-22.787-18.382-30.294-14.624  c-9.78,4.89-8.059,23.103-8.059,23.103c-0.827,2.396-5.97,7.892-4.44,9.131c0.695,0.555,3.299,1.37,3.299,1.37  c-1.164,9.748,1.352,14.399,3.893,13.732c13.355-3.523,11.848,6.395,11.848,6.395c-8.418,1.403-18.217,45.606-18.217,45.606  c-16.809,4.104-22.739-3.603-22.739-3.603c-4.478-11.027-11.093-5.028-11.093-5.028c-11.498,13.112,7.928,12.862,7.928,12.862  l25.441,10.687l5.926,6.405c7.787,0.547,14.859-3.433,14.859-3.433c8.497,5.089,8.171,29.722,8.171,29.722  c-8.341,6.583,0.769,9.066,0.769,9.066l1.385,7.105l-37.748,38.737c-12.14,13.778-2.922,24.683-2.922,24.683l65.334,38.697  c5.264,6.413,5.076,20.801,5.076,20.801c-4.721,11.93-3.821,15.954-0.853,15.497c16.469-2.57,17.987-23.614,17.987-23.614  c4.499-2.652,10.919-7.924,10.919-7.924l21.769,29.544l-0.715,12.568c1.584,7.838-14.361,20.762,4.448,16.484  c8.548-1.934,12.169-9.689,12.706-18.176c0.148-2.459,4.618-4.637,5.006-6.443C293.549,307.585,283.011,305.994,283.011,305.994z   M230.967,271.904l-22.922-17.842c-5.934-7.718-28.833-23.635-28.833-23.635c3.216-1.979,32.136-19.854,32.136-19.854l12.234,41.989  c0.04,3.236,22.385,25.636,22.385,25.636C241.381,275.015,230.967,271.904,230.967,271.904z"
     id="path3" /></svg>