<?xml version="1.0" encoding="UTF-8" standalone="no"?>
<svg
   xmlns:dc="http://purl.org/dc/elements/1.1/"
   xmlns:cc="http://creativecommons.org/ns#"
   xmlns:rdf="http://www.w3.org/1999/02/22-rdf-syntax-ns#"
   xmlns:svg="http://www.w3.org/2000/svg"
   xmlns="http://www.w3.org/2000/svg"
   id="svg6135"
   version="1.1"
   viewBox="0 0 58.331684 10.591247"
   height="10.591247mm"
   width="58.331684mm">
  <defs
     id="defs6129" />
  <metadata
     id="metadata6132">
    <rdf:RDF>
      <cc:Work
         rdf:about="">
        <dc:format>image/svg+xml</dc:format>
        <dc:type
           rdf:resource="http://purl.org/dc/dcmitype/StillImage" />
        <dc:title></dc:title>
      </cc:Work>
    </rdf:RDF>
  </metadata>
  <g
     transform="translate(-10.704854,-11.136628)"
     id="layer1">
    <g
       id="g6906">
      <path
         d="M 10.704854,21.727874 V 11.136628 h 2.776779 v 1.573078 h -1.331085 v 7.438721 h 1.331085 v 1.579447 z"
         style="font-style:normal;font-variant:normal;font-weight:900;font-stretch:normal;font-size:medium;line-height:77.53266144px;font-family:'Maven Pro';-inkscape-font-specification:'Maven Pro Heavy';letter-spacing:-9.26041698px;word-spacing:0px;fill:#1a1a1a;fill-opacity:1;stroke:none;stroke-width:0.26458332px;stroke-linecap:butt;stroke-linejoin:miter;stroke-opacity:1"
         id="path5040-5" />
      <path
         d="m 13.719789,19.729168 v -6.597062 h 4.597657 v 1.386059 h -2.897683 v 1.217028 h 2.51616 v 1.390888 h -2.51616 v 1.207369 h 2.897683 v 1.395718 z"
         style="font-style:normal;font-variant:normal;font-weight:900;font-stretch:normal;font-size:medium;line-height:77.53266144px;font-family:'Maven Pro';-inkscape-font-specification:'Maven Pro Heavy';letter-spacing:-11.90625px;word-spacing:0px;fill:#7030b0;fill-opacity:1;stroke:none;stroke-width:0.26458332px;stroke-linecap:butt;stroke-linejoin:miter;stroke-opacity:1"
         id="path5042-2" />
      <path
         d="m 18.483582,19.729168 v -6.597062 h 1.671001 l 1.555086,2.245706 1.55027,-2.245706 h 1.675827 v 6.597062 h -1.704811 v -4.085735 l -1.521286,2.187752 -1.526113,-2.187752 v 4.085735 z"
         style="font-style:normal;font-variant:normal;font-weight:900;font-stretch:normal;font-size:medium;line-height:77.53266144px;font-family:'Maven Pro';-inkscape-font-specification:'Maven Pro Heavy';letter-spacing:-11.90625px;word-spacing:0px;fill:#7030b0;fill-opacity:1;stroke:none;stroke-width:0.26458332px;stroke-linecap:butt;stroke-linejoin:miter;stroke-opacity:1"
         id="path5044-9" />
      <path
         d="m 25.449614,19.729168 v -6.597062 h 2.23605 q 2.612745,0 2.612745,1.849689 0,0.318745 -0.106249,0.560218 -0.101412,0.241474 -0.284938,0.386359 -0.183516,0.140054 -0.313912,0.207667 -0.125569,0.06278 -0.294603,0.120737 1.323279,0.376699 1.323279,1.651681 0,1.820711 -2.738315,1.820711 z m 1.699985,-1.395718 h 0.970718 q 0.01932,0 0.03381,0 0.33323,0.0048 0.569876,-0.169032 0.2463,-0.183519 0.2463,-0.55056 0,-0.367039 -0.275273,-0.536071 -0.275284,-0.169032 -0.603688,-0.169032 h -0.941744 z m 0,-2.617575 h 0.874133 q 0.236645,0 0.429816,-0.149714 0.19318,-0.149713 0.19318,-0.405676 0,-0.338063 -0.222154,-0.487777 -0.222154,-0.154543 -0.502265,-0.154543 h -0.77271 z"
         style="font-style:normal;font-variant:normal;font-weight:900;font-stretch:normal;font-size:medium;line-height:77.53266144px;font-family:'Maven Pro';-inkscape-font-specification:'Maven Pro Heavy';letter-spacing:-11.90625px;word-spacing:0px;fill:#7030b0;fill-opacity:1;stroke:none;stroke-width:0.26458332px;stroke-linecap:butt;stroke-linejoin:miter;stroke-opacity:1"
         id="path5046-1" />
      <path
         d="m 30.706018,19.729168 v -6.597062 h 4.597668 v 1.386059 h -2.897694 v 1.217028 h 2.51616 v 1.390888 h -2.51616 v 1.207369 h 2.897694 v 1.395718 z"
         style="font-style:normal;font-variant:normal;font-weight:900;font-stretch:normal;font-size:medium;line-height:77.53266144px;font-family:'Maven Pro';-inkscape-font-specification:'Maven Pro Heavy';letter-spacing:-11.90625px;word-spacing:0px;fill:#7030b0;fill-opacity:1;stroke:none;stroke-width:0.26458332px;stroke-linecap:butt;stroke-linejoin:miter;stroke-opacity:1"
         id="path5048-2" />
      <path
         d="m 35.460157,19.729168 v -6.597062 h 2.3761 q 1.53095,0 2.332634,0.840328 0.801695,0.840329 0.801695,2.463033 0,1.613044 -0.801695,2.453373 -0.801684,0.840328 -2.332634,0.840328 z m 1.699974,-1.395718 h 0.676126 q 1.434355,0 1.434355,-1.897983 0,-1.917302 -1.434355,-1.917302 h -0.676126 z"
         style="font-style:normal;font-variant:normal;font-weight:900;font-stretch:normal;font-size:medium;line-height:77.53266144px;font-family:'Maven Pro';-inkscape-font-specification:'Maven Pro Heavy';letter-spacing:-11.90625px;word-spacing:0px;fill:#7030b0;fill-opacity:1;stroke:none;stroke-width:0.26458332px;stroke-linecap:butt;stroke-linejoin:miter;stroke-opacity:1"
         id="path5050-7" />
      <path
         d="m 41.218825,19.729168 v -6.597062 h 2.3761 q 1.53094,0 2.332635,0.840328 0.801694,0.840329 0.801694,2.463033 0,1.613044 -0.801694,2.453373 -0.801695,0.840328 -2.332635,0.840328 z m 1.699974,-1.395718 h 0.676126 q 1.434355,0 1.434355,-1.897983 0,-1.917302 -1.434355,-1.917302 h -0.676126 z"
         style="font-style:normal;font-variant:normal;font-weight:900;font-stretch:normal;font-size:medium;line-height:77.53266144px;font-family:'Maven Pro';-inkscape-font-specification:'Maven Pro Heavy';letter-spacing:-11.90625px;word-spacing:0px;fill:#7030b0;fill-opacity:1;stroke:none;stroke-width:0.26458332px;stroke-linecap:butt;stroke-linejoin:miter;stroke-opacity:1"
         id="path5052-0" />
      <path
         d="m 46.900217,19.729168 v -6.597062 h 4.597658 v 1.386059 h -2.897684 v 1.217028 h 2.516161 v 1.390888 h -2.516161 v 1.207369 h 2.897684 v 1.395718 z"
         style="font-style:normal;font-variant:normal;font-weight:900;font-stretch:normal;font-size:medium;line-height:77.53266144px;font-family:'Maven Pro';-inkscape-font-specification:'Maven Pro Heavy';letter-spacing:-11.90625px;word-spacing:0px;fill:#7030b0;fill-opacity:1;stroke:none;stroke-width:0.26458332px;stroke-linecap:butt;stroke-linejoin:miter;stroke-opacity:1"
         id="path5054-9" />
      <path
         d="m 51.654356,19.729168 v -6.597062 h 2.3761 q 1.53094,0 2.332635,0.840328 0.801694,0.840329 0.801694,2.463033 0,1.613044 -0.801694,2.453373 -0.801695,0.840328 -2.332635,0.840328 z M 53.35433,18.33345 h 0.676126 q 1.434355,0 1.434355,-1.897983 0,-1.917302 -1.434355,-1.917302 H 53.35433 Z"
         style="font-style:normal;font-variant:normal;font-weight:900;font-stretch:normal;font-size:medium;line-height:77.53266144px;font-family:'Maven Pro';-inkscape-font-specification:'Maven Pro Heavy';letter-spacing:-11.90625px;word-spacing:0px;fill:#7030b0;fill-opacity:1;stroke:none;stroke-width:0.26458332px;stroke-linecap:butt;stroke-linejoin:miter;stroke-opacity:1"
         id="path5056-3" />
      <path
         id="path5060-6"
         style="font-style:normal;font-variant:normal;font-weight:900;font-stretch:normal;font-size:medium;line-height:77.53266144px;font-family:'Maven Pro';-inkscape-font-specification:'Maven Pro Heavy';letter-spacing:-9.26041698px;word-spacing:0px;fill:#1a1a1a;fill-opacity:1;stroke:none;stroke-width:0.26458332px;stroke-linecap:butt;stroke-linejoin:miter;stroke-opacity:1"
         d="M 59.662321,21.727874 V 11.136628 h -2.776779 v 1.573078 h 1.331086 v 7.438721 h -1.331086 v 1.579447 z" />
      <path
         d="m 60.791949,16.159816 v -2.880333 h 1.956776 v 0.605165 h -1.214549 v 0.581971 h 1.050077 v 0.609383 h -1.050077 v 1.083814 z"
         style="font-style:normal;font-variant:normal;font-weight:900;font-stretch:normal;font-size:medium;line-height:33.85140991px;font-family:'Maven Pro';-inkscape-font-specification:'Maven Pro Heavy';letter-spacing:0px;word-spacing:0px;fill:#4d4d4d;fill-opacity:1;stroke:none;stroke-width:0.26458332px;stroke-linecap:butt;stroke-linejoin:miter;stroke-opacity:1"
         id="path6845" />
      <path
         d="m 63.233701,15.335358 q -0.08224,-0.267791 -0.08224,-0.617817 0,-0.350026 0.08224,-0.617816 0.08224,-0.267791 0.212969,-0.423827 0.132835,-0.158144 0.316286,-0.257248 0.183447,-0.101212 0.360568,-0.13495 0.177122,-0.03374 0.379546,-0.03374 0.202424,0 0.379546,0.03374 0.177121,0.03374 0.360568,0.13495 0.183448,0.0991 0.31418,0.257248 0.132842,0.156036 0.215077,0.423827 0.08223,0.26779 0.08223,0.617816 0,0.350026 -0.08223,0.617817 -0.08223,0.267791 -0.215077,0.425935 -0.130732,0.156035 -0.31418,0.257248 -0.183447,0.0991 -0.360568,0.132841 -0.177122,0.03374 -0.379546,0.03374 -0.202424,0 -0.379546,-0.03374 -0.177121,-0.03374 -0.360568,-0.132841 -0.183451,-0.101213 -0.316286,-0.257248 -0.130732,-0.158144 -0.212969,-0.425935 z m 0.826566,-1.269371 q -0.166579,0.181339 -0.166579,0.651554 0,0.470215 0.166579,0.651554 0.166578,0.181339 0.442803,0.181339 0.276226,0 0.442804,-0.181339 0.166579,-0.181339 0.166579,-0.651554 0,-0.470215 -0.166579,-0.651554 -0.166578,-0.181339 -0.442804,-0.181339 -0.276225,0 -0.442803,0.181339 z"
         style="font-style:normal;font-variant:normal;font-weight:900;font-stretch:normal;font-size:medium;line-height:33.85140991px;font-family:'Maven Pro';-inkscape-font-specification:'Maven Pro Heavy';letter-spacing:0px;word-spacing:0px;fill:#4d4d4d;fill-opacity:1;stroke:none;stroke-width:0.26458332px;stroke-linecap:butt;stroke-linejoin:miter;stroke-opacity:1"
         id="path6847" />
      <path
         d="m 66.468275,16.159816 v -2.880333 h 1.13653 q 0.527147,0 0.843435,0.246706 0.318397,0.244595 0.318397,0.689508 0,0.341591 -0.158144,0.562994 -0.158145,0.219293 -0.421717,0.305745 l 0.695833,1.07538 h -0.828675 l -0.535582,-0.963625 h -0.307854 v 0.963625 z m 0.742223,-1.520293 h 0.440695 q 0.151819,0 0.261465,-0.105429 0.109647,-0.105429 0.109647,-0.269899 0,-0.168687 -0.109647,-0.274118 -0.109646,-0.105429 -0.261465,-0.105429 h -0.440695 z"
         style="font-style:normal;font-variant:normal;font-weight:900;font-stretch:normal;font-size:medium;line-height:33.85140991px;font-family:'Maven Pro';-inkscape-font-specification:'Maven Pro Heavy';letter-spacing:0px;word-spacing:0px;fill:#4d4d4d;fill-opacity:1;stroke:none;stroke-width:0.26458332px;stroke-linecap:butt;stroke-linejoin:miter;stroke-opacity:1"
         id="path6849" />
      <path
         d="m 60.796174,19.614529 v -2.880333 h 0.742217 v 1.136529 h 0.925671 v -1.136529 h 0.742227 v 2.880333 h -0.742227 v -1.136531 h -0.925671 v 1.136531 z"
         style="font-style:normal;font-variant:normal;font-weight:900;font-stretch:normal;font-size:medium;line-height:33.85140991px;font-family:'Maven Pro';-inkscape-font-specification:'Maven Pro Heavy';letter-spacing:0px;word-spacing:0px;fill:#000000;fill-opacity:1;stroke:none;stroke-width:0.26458332px;stroke-linecap:butt;stroke-linejoin:miter;stroke-opacity:1"
         id="path6851" />
      <path
         d="m 63.946403,19.614529 v -2.880333 h 2.007376 v 0.605164 h -1.265153 v 0.531365 h 1.098575 v 0.607273 h -1.098575 v 0.527148 h 1.265153 v 0.609383 z"
         style="font-style:normal;font-variant:normal;font-weight:900;font-stretch:normal;font-size:medium;line-height:33.85140991px;font-family:'Maven Pro';-inkscape-font-specification:'Maven Pro Heavy';letter-spacing:0px;word-spacing:0px;fill:#000000;fill-opacity:1;stroke:none;stroke-width:0.26458332px;stroke-linecap:butt;stroke-linejoin:miter;stroke-opacity:1"
         id="path6853" />
      <path
         d="m 66.552619,19.614529 v -2.880333 h 1.136529 q 0.527148,0 0.843437,0.246705 0.318396,0.244595 0.318396,0.689508 0,0.341592 -0.158144,0.562994 -0.158144,0.219293 -0.421718,0.305745 l 0.695835,1.075381 h -0.828676 l -0.535582,-0.963626 h -0.307854 v 0.963626 z m 0.742223,-1.520294 h 0.440696 q 0.151818,0 0.261465,-0.105429 0.109646,-0.105429 0.109646,-0.269899 0,-0.168687 -0.109646,-0.274116 -0.109647,-0.105431 -0.261465,-0.105431 h -0.440696 z"
         style="font-style:normal;font-variant:normal;font-weight:900;font-stretch:normal;font-size:medium;line-height:33.85140991px;font-family:'Maven Pro';-inkscape-font-specification:'Maven Pro Heavy';letter-spacing:0px;word-spacing:0px;fill:#000000;fill-opacity:1;stroke:none;stroke-width:0.26458332px;stroke-linecap:butt;stroke-linejoin:miter;stroke-opacity:1"
         id="path6855" />
    </g>
  </g>
</svg>
