<?xml version="1.0" encoding="UTF-8" standalone="no"?>
<!-- Created with Inkscape (http://www.inkscape.org/) -->

<svg
   xmlns:dc="http://purl.org/dc/elements/1.1/"
   xmlns:cc="http://creativecommons.org/ns#"
   xmlns:rdf="http://www.w3.org/1999/02/22-rdf-syntax-ns#"
   xmlns:svg="http://www.w3.org/2000/svg"
   xmlns="http://www.w3.org/2000/svg"
   xmlns:sodipodi="http://sodipodi.sourceforge.net/DTD/sodipodi-0.dtd"
   xmlns:inkscape="http://www.inkscape.org/namespaces/inkscape"
   width="123.31228mm"
   height="154.72044mm"
   viewBox="0 0 436.93328 548.22204"
   id="svg13979"
   version="1.1"
   inkscape:version="0.91 r13725"
   sodipodi:docname="FSMK.svg">
  <defs
     id="defs13981">
    <filter
       style="color-interpolation-filters:sRGB"
       id="filter8573-6-8-7-3-6"
       inkscape:label="Invert"
       x="0"
       y="0"
       width="1"
       height="1"
       inkscape:menu="Color"
       inkscape:menu-tooltip="Invert colors">
      <feColorMatrix
         id="feColorMatrix8575-8-7-1-68-3"
         type="saturate"
         values="1"
         result="fbSourceGraphic" />
      <feColorMatrix
         id="feColorMatrix8577-6-3-0-8"
         in="fbSourceGraphic"
         values="-1 0 0 0 1 0 -1 0 0 1 0 0 -1 0 1 0 0 0 1 0 "
         result="fbSourceGraphic" />
      <feColorMatrix
         result="fbSourceGraphicAlpha"
         in="fbSourceGraphic"
         values="0 0 0 -1 0 0 0 0 -1 0 0 0 0 -1 0 0 0 0 1 0"
         id="feColorMatrix4174" />
      <feColorMatrix
         id="feColorMatrix4176"
         type="hueRotate"
         values="180"
         result="color1"
         in="fbSourceGraphic" />
      <feColorMatrix
         id="feColorMatrix4178"
         values="-1 0 0 0 1 0 -1 0 0 1 0 0 -1 0 1 -0.21 -0.72 -0.07 2 0 "
         result="color2" />
    </filter>
    <filter
       style="color-interpolation-filters:sRGB"
       id="filter8573-6-8-3-3"
       inkscape:label="Invert"
       x="0"
       y="0"
       width="1"
       height="1"
       inkscape:menu="Color"
       inkscape:menu-tooltip="Invert colors">
      <feColorMatrix
         id="feColorMatrix8575-8-7-26-9"
         type="saturate"
         values="1"
         result="fbSourceGraphic" />
      <feColorMatrix
         id="feColorMatrix8577-6-3-9-6"
         in="fbSourceGraphic"
         values="-1 0 0 0 1 0 -1 0 0 1 0 0 -1 0 1 0 0 0 1 0 " />
    </filter>
    <filter
       style="color-interpolation-filters:sRGB"
       id="filter8573-6-8-7-3-6-1"
       inkscape:label="Invert"
       x="0"
       y="0"
       width="1"
       height="1"
       inkscape:menu="Color"
       inkscape:menu-tooltip="Invert colors">
      <feColorMatrix
         id="feColorMatrix8575-8-7-1-68-3-9"
         type="saturate"
         values="1"
         result="fbSourceGraphic" />
      <feColorMatrix
         id="feColorMatrix8577-6-3-0-8-4"
         in="fbSourceGraphic"
         values="-1 0 0 0 1 0 -1 0 0 1 0 0 -1 0 1 0 0 0 1 0 "
         result="fbSourceGraphic" />
      <feColorMatrix
         result="fbSourceGraphicAlpha"
         in="fbSourceGraphic"
         values="0 0 0 -1 0 0 0 0 -1 0 0 0 0 -1 0 0 0 0 1 0"
         id="feColorMatrix4174-5" />
      <feColorMatrix
         id="feColorMatrix4176-0"
         type="hueRotate"
         values="180"
         result="color1"
         in="fbSourceGraphic" />
      <feColorMatrix
         id="feColorMatrix4178-5"
         values="-1 0 0 0 1 0 -1 0 0 1 0 0 -1 0 1 -0.21 -0.72 -0.07 2 0 "
         result="color2" />
    </filter>
  </defs>
  <sodipodi:namedview
     id="base"
     pagecolor="#ffffff"
     bordercolor="#666666"
     borderopacity="1.0"
     inkscape:pageopacity="0.0"
     inkscape:pageshadow="2"
     inkscape:zoom="0.49497475"
     inkscape:cx="-194.10498"
     inkscape:cy="321.15228"
     inkscape:document-units="px"
     inkscape:current-layer="g4180"
     showgrid="false"
     inkscape:window-width="1440"
     inkscape:window-height="856"
     inkscape:window-x="0"
     inkscape:window-y="18"
     inkscape:window-maximized="0"
     fit-margin-top="0"
     fit-margin-left="0"
     fit-margin-right="0"
     fit-margin-bottom="0" />
  <metadata
     id="metadata13984">
    <rdf:RDF>
      <cc:Work
         rdf:about="">
        <dc:format>image/svg+xml</dc:format>
        <dc:type
           rdf:resource="http://purl.org/dc/dcmitype/StillImage" />
        <dc:title></dc:title>
      </cc:Work>
    </rdf:RDF>
  </metadata>
  <g
     inkscape:label="Layer 1"
     inkscape:groupmode="layer"
     id="layer1"
     transform="translate(-158.32961,-224.48029)">
    <g
       id="g4180"
       transform="matrix(1.5755043,0,0,1.5755043,-226.39683,-258.10081)"
       inkscape:export-xdpi="90"
       inkscape:export-ydpi="90">
      <path
         inkscape:export-ydpi="300"
         inkscape:export-xdpi="300"
         inkscape:export-filename="G:\GLUG\FSMK\Camp 14.07 \tshirts\FINALFINAL.png"
         id="path3367-0-7"
         d="m 386.63273,340.80859 c -73.68939,0 -133.52229,59.6987 -133.52229,133.3882 0,73.6895 59.8329,133.3882 133.52229,133.3882 2.0319,0 4.0289,-0.043 6.0387,-0.1332 -0.3186,-2.2218 -0.5854,-4.9739 -0.9394,-9.1251 -0.643,-7.5402 -2.175,-19.1972 -3.489,-25.8995 -3.4362,-17.5268 -3.5559,-17.9704 -2.6839,-20.263 0.4357,-1.1453 4.511,-6.1764 8.991,-11.1383 l 8.1858,-8.9912 1.7445,-8.9907 c 1.6187,-8.3333 1.526,-9.4798 0,-16.2376 -0.9031,-3.9987 -1.6103,-8.2328 -1.6103,-9.5275 0,-8.0417 -9.1107,0.538 -9.2594,8.7224 -0.035,1.8786 -0.8763,5.9191 -1.8787,8.9911 -1.8096,5.5456 -1.8236,5.5906 -2.9522,2.8179 -0.6252,-1.5357 -1.7635,-2.8179 -2.5497,-2.8179 -1.3869,0 -12.4244,14.7149 -15.4322,20.5314 -2.1983,4.2508 -2.806,10.7238 -1.6103,17.1767 1.1066,5.9728 0.4169,42.5395 -0.8052,42.5395 -0.6437,0 -6.2325,-42.8727 -6.1729,-47.3704 0.035,-2.668 -5.1512,-7.0709 -13.2851,-11.4063 -5.06509,-2.6997 -6.01449,-3.7737 -7.38059,-7.7831 -3.341,-9.805 -12.6425,-21.7394 -16.9084,-21.7394 -2.118,0 -2.1326,0.3178 -1.4761,4.6966 l 0.6709,4.6969 -2.2813,-1.6103 c -2.6615,-1.8645 -6.0387,-2.2901 -6.0387,-0.6712 0,0.5986 3.032,7.1263 6.7097,14.3589 6.3777,12.5421 7.1211,13.3666 15.0296,19.9946 12.56189,10.5285 11.88259,9.4395 11.00389,19.9951 -0.6961,8.3616 -0.8451,9.0942 -2.9523,9.3935 -1.73789,0.2448 -2.28129,-0.146 -2.28129,-1.7447 0,-1.1556 -0.6737,-2.1471 -1.3419,-2.1471 -1.2219,0 -8.2366,-4.4802 -10.7354,-6.8437 -0.7381,-0.6982 -2.1632,-1.2079 -3.2207,-1.2079 -1.0575,0 -2.4222,-0.8881 -2.9522,-1.8787 -3.0135,-5.631 -7.0398,-30.2659 -5.2336,-32.072 0.6549,-0.6549 0.6201,-1.509 -0.2683,-2.5499 -0.7454,-0.8734 -2.0763,-3.6595 -2.9523,-6.1729 -0.876,-2.5134 -2.9089,-8.28 -4.5626,-12.7481 -1.6536,-4.4681 -3.3433,-10.1008 -3.7574,-12.6142 -0.8881,-5.3901 -4.943,-12.7709 -8.1858,-14.8957 -3.6902,-2.4176 -3.9607,-5.3819 -0.5367,-6.5753 2.3406,-0.8159 3.1361,-1.9169 4.0258,-5.7705 0.6036,-2.6143 1.0545,-6.6225 1.0735,-8.8567 0.043,-4.9117 -1.4785,-15.5261 -2.5497,-17.982 -0.5805,-1.3307 -0.2044,-1.7326 1.2078,-1.7442 3.2351,-0.043 4.418,-1.5155 7.5148,-9.1252 3.8279,-9.4064 3.7508,-11.748 0,-13.6877 -1.9713,-1.0195 -3.028,-2.5662 -3.489,-4.831 -0.5894,-2.8955 -0.3539,-3.8132 2.4154,-6.3073 2.3029,-2.0741 3.4995,-2.5391 4.2942,-1.7443 1.8634,1.8633 3.952,1.2883 8.0516,-2.4154 2.1637,-1.9548 4.7753,-3.6235 5.9045,-3.6235 1.2058,0 2.4328,-0.9151 2.9523,-2.2811 1.5882,-4.1774 3.6376,-5.1517 7.1122,-3.355 4.0532,2.096 5.74,2.0432 8.18579,-0.4037 1.3874,-1.3874 3.4931,-2.0032 6.4413,-2.0127 2.3737,0 5.3945,-0.3177 6.7096,-0.6711 2.275,-0.6089 2.3609,-0.9984 1.8788,-7.3805 -0.2787,-3.6895 -0.8206,-7.662 -1.2078,-8.8567 -0.7021,-2.1664 -0.8128,-2.2123 5.0994,-0.6712 3.2604,0.8498 10.3893,1.7555 15.8348,2.0131 l 9.9303,0.5368 0,-6.0389 c 0,-5.5257 0.3264,-6.1802 3.2206,-8.32 2.1436,-1.5846 3.9291,-2.1072 5.7703,-1.7443 3.917,0.7717 12.2655,-7.9945 13.2852,-13.9561 0.3439,-2.0114 0.5508,-2.9806 1.0735,-3.489 -8.8543,-1.8508 -17.9714,-2.8183 -27.3754,-2.8183 z m 51.9328,10.4671 c -0.4213,0.736 -0.8127,1.6017 -1.6103,2.5495 -1.3963,1.6597 -2.5497,3.626 -2.5497,4.4285 0,0.8022 -0.5611,2.3194 -1.2077,3.3547 -1.5608,2.4992 -0.4706,4.9735 2.6838,6.1729 3.091,1.1753 3.2212,2.2153 0.5368,3.8918 -2.5071,1.5656 -7.1122,8.6704 -7.1122,11.0038 0,0.9525 0.8091,2.7385 1.8787,3.8914 1.7967,1.9371 1.8938,2.7616 0.9393,11.6751 -1.0843,10.1257 -1.8359,11.8403 -5.6361,13.2849 -1.2796,0.4865 -2.2813,1.5785 -2.2813,2.4155 0,1.7876 5.0139,4.6969 8.1858,4.6969 1.9317,0 2.1655,0.3093 1.6103,3.0863 -0.3491,1.7456 -0.6709,5.3974 -0.6709,8.0516 l 0,4.831 -4.4284,-0.5369 c -4.8668,-0.5483 -10.964,1.0431 -12.8826,3.3551 -0.9297,1.12 -0.8859,2.1553 0,4.2942 0.9662,2.3326 0.7679,3.4444 -0.9393,6.9781 -2.7058,5.6 -2.5197,7.194 1.0735,11.9429 5.3287,7.0425 3.3624,12.6641 -3.8916,11.2723 -7.0128,-1.3454 -7.8284,-1.1814 -8.1858,1.3419 -0.2005,1.4167 0.3754,2.9523 1.4761,3.7574 1.7615,1.2883 1.8226,1.463 0.134,6.1729 -2.5871,7.2181 -2.3907,10.0879 1.2078,12.7486 2.0495,1.515 2.6992,2.534 2.0128,3.2206 -1.6485,1.6486 -1.1869,3.6441 1.4762,6.3069 3.0766,3.0768 6.324,3.152 9.3935,0.2663 1.9414,-1.8238 2.8335,-1.9835 4.831,-1.0736 2.9439,1.3415 3.8544,4.3595 2.2813,7.5148 -2.0624,4.1371 -9.0018,3.7235 -11.0039,-0.6707 -1.5339,-3.3666 -5.9136,-3.5767 -5.9045,-0.2662 0,1.2564 0.6446,3.6388 1.4761,5.2333 0.9837,1.886 1.3376,4.2194 0.9394,6.7096 -0.3813,2.3837 -0.1791,4.1203 0.5367,4.5626 2.0001,1.2363 7.3754,-0.6106 7.9175,-2.6839 1.0105,-3.8643 10.467,-0.3521 10.467,3.8919 0,3.2064 13.2547,-1.3596 15.9691,-5.5022 1.4584,-2.2257 1.7232,-2.2815 3.3548,-0.8051 1.1817,1.0697 2.6573,1.384 4.4284,0.9395 2.5509,-0.6402 2.6838,-0.468 2.6838,3.623 0,5.1213 2.7631,8.1345 7.7832,8.1861 3.2679,0.043 3.3549,0.06 3.3549,4.9649 0,4.5351 0.1945,5.0306 2.9522,6.1729 1.6571,0.6866 3.4671,1.7426 4.0258,2.4154 1.6831,2.0282 -2.3688,8.971 -8.4542,14.2245 -5.185,4.4767 -5.7589,4.7035 -7.9173,3.3551 -1.2694,-0.7932 -4.1627,-1.6765 -6.4413,-2.0131 -4.6147,-0.6815 -6.8774,0.4376 -8.8568,4.4286 -0.7841,1.5807 -2.2913,2.6164 -4.0258,2.8178 -3.2824,0.3822 -4.318,3.3705 -3.3548,9.3936 0.6622,4.1417 -0.3199,5.6867 -5.0994,8.7227 -1.9095,1.2127 -1.9384,1.2848 0,2.8179 1.0842,0.8575 3.0504,1.6103 4.2942,1.6103 2.6767,0 4.2451,0.6948 4.9652,1.7447 46.5931,-20.8126 79.0398,-67.5192 79.0398,-121.8475 0,-55.267 -33.5665,-102.6658 -81.4553,-122.9211 z m -44.1496,94.0693 c -0.2297,0 -0.5215,0.043 -0.671,0.1331 -0.5978,0.3693 -3.4997,4.4548 -6.5754,9.1252 -5.904,8.9649 -19.1931,22.8081 -21.8735,22.8128 -0.8724,0 -2.6529,-1.2766 -3.8917,-2.9522 -2.928,-3.9606 -4.5447,-3.8145 -7.1122,0.5368 -1.1534,1.9547 -2.5431,3.489 -3.0865,3.489 -0.5433,0 -3.022,-1.6627 -5.5019,-3.7574 -2.47979,-2.0943 -8.27099,-7.094 -12.88249,-11.0039 -15.0114,-12.7262 -16.8752,-13.3446 -15.8349,-5.5017 1.4135,10.6547 8.5651,27.0834 14.2246,32.7432 3.1007,3.1008 4.2121,3.5105 10.1987,3.8914 3.67839,0.2362 7.22919,1.0563 7.91729,1.7447 0.9914,0.9911 -0.021,1.1642 -4.8309,0.9391 -5.97049,-0.2791 -6.12129,-0.2361 -6.44129,2.5499 -0.5483,4.7764 4.1165,11.3277 10.19869,14.3585 6.0462,3.0132 9.1409,3.3181 11.0038,1.0736 0.9019,-1.0865 1.547,-1.2711 2.2813,-0.5368 2.7119,2.7117 11.0045,-0.2749 16.64,-6.0385 4.0549,-4.1478 4.9711,-7.584 2.8181,-10.8699 -1.5503,-2.3657 -2.0171,-2.5318 -7.2465,-1.8787 -3.6232,0.4526 -5.3676,0.3822 -4.9651,-0.2662 0.3427,-0.554 2.9729,-1.3557 5.9045,-1.7443 2.9315,-0.3908 6.7884,-1.3102 8.5884,-2.1471 4.353,-2.0243 8.7919,-9.114 10.7354,-16.9084 5.4649,-21.9162 5.8952,-25.7986 2.8181,-28.5834 -0.8114,-0.7343 -1.7261,-1.1774 -2.4155,-1.2075 z"
         style="fill:#1a1a1a;fill-opacity:1;fill-rule:nonzero"
         inkscape:connector-curvature="0" />
      <path
         d="m 250.77274,380.16869 c -0.5878,0.452 -1.0411,0.945 -1.3597,1.4791 -0.8648,1.4497 -0.4694,2.6207 1.1862,3.5129 l 1.6406,0.8841 1.997,-3.3475 3.507,1.89 -1.997,3.3475 11.9055,6.4163 -2.6883,4.5063 -11.9055,-6.4162 -1.4679,2.4606 -3.507,-1.89 1.4679,-2.4606 -1.9115,-1.0301 c -1.7559,-0.9464 -2.8464,-2.2525 -3.2715,-3.9184 -0.4251,-1.6658 -0.08,-3.4334 1.0351,-5.3028 0.5462,-0.9155 1.1017,-1.6244 1.6665,-2.1267 z"
         style="font-style:normal;font-variant:normal;font-weight:bold;font-stretch:normal;font-size:8.25193119px;line-height:125%;font-family:'Segoe UI';-inkscape-font-specification:'Segoe UI Bold';text-align:center;letter-spacing:0px;word-spacing:0px;text-anchor:middle;fill:#1a1a1a;fill-opacity:1;stroke:none"
         id="path6534-6-16"
         inkscape:connector-curvature="0" />
      <path
         d="m 267.37904,372.95519 c -0.6719,0.3135 -1.2613,0.81 -1.7682,1.4898 -0.6869,0.9214 -0.8685,1.8808 -0.5448,2.8782 0.3238,0.9974 1.0973,1.9082 2.3208,2.7323 l 6.9032,4.6498 -3.1614,4.24 -14.4557,-9.737 3.1613,-4.24 2.6823,1.8066 0.039,-0.053 c -1.4574,-1.9895 -1.5357,-3.8563 -0.2353,-5.6006 0.3336,-0.4473 0.65,-0.7581 0.9497,-0.9325 z"
         style="font-style:normal;font-variant:normal;font-weight:bold;font-stretch:normal;font-size:8.25193119px;line-height:125%;font-family:'Segoe UI';-inkscape-font-specification:'Segoe UI Bold';text-align:center;letter-spacing:0px;word-spacing:0px;text-anchor:middle;fill:#1a1a1a;fill-opacity:1;stroke:none"
         id="path6536-1-6"
         inkscape:connector-curvature="0" />
      <path
         d="m 284.69724,362.18929 -7.7692,8.1336 c 2.0285,1.5135 4.0702,1.1948 6.1249,-0.9563 1.3103,-1.3719 2.1201,-2.872 2.4294,-4.5007 l 2.9207,2.5205 c -0.4519,1.7127 -1.5579,3.4905 -3.3181,5.3331 -1.9228,2.013 -4.0026,3.069 -6.2391,3.1677 -2.2365,0.099 -4.4052,-0.7584 -6.5061,-2.5713 -2.1778,-1.8793 -3.3291,-3.9686 -3.4541,-6.2681 -0.1249,-2.2994 0.65,-4.3258 2.3248,-6.0791 1.7368,-1.8183 3.6481,-2.7345 5.7337,-2.7487 2.0857,-0.012 4.1021,0.8188 6.0493,2.4991 z m -5.893,1.423 c -1.8788,-1.6213 -3.5083,-1.7095 -4.8885,-0.2645 -0.5892,0.617 -0.83,1.3829 -0.7224,2.2976 0.1078,0.9148 0.5165,1.7673 1.2262,2.5574 z"
         style="font-style:normal;font-variant:normal;font-weight:bold;font-stretch:normal;font-size:8.25193119px;line-height:125%;font-family:'Segoe UI';-inkscape-font-specification:'Segoe UI Bold';text-align:center;letter-spacing:0px;word-spacing:0px;text-anchor:middle;fill:#1a1a1a;fill-opacity:1;stroke:none"
         id="path6538-8-6"
         inkscape:connector-curvature="0" />
      <path
         d="m 300.08544,349.74539 -8.8783,7.0338 c 1.7887,1.7657 3.8571,1.7185 6.2052,-0.1416 1.4974,-1.1864 2.5177,-2.5656 3.0611,-4.1379 l 2.5258,2.8802 c -0.6969,1.6369 -2.051,3.252 -4.0623,4.8455 -2.1975,1.7409 -4.4109,2.5132 -6.6403,2.3169 -2.2294,-0.1963 -4.2525,-1.3303 -6.0693,-3.4021 -1.8833,-2.1475 -2.7195,-4.3682 -2.5086,-6.6619 0.2109,-2.2937 1.2734,-4.1988 3.1872,-5.7151 1.9848,-1.5723 4.011,-2.2285 6.0787,-1.9683 2.0677,0.26 3.9435,1.3504 5.6274,3.2705 z m -6.0434,0.6344 c -1.6248,-1.8527 -3.2258,-2.1543 -4.803,-0.9049 -0.6734,0.5335 -1.0234,1.2604 -1.0498,2.1805 -0.026,0.9202 0.2542,1.8183 0.8421,2.6941 z"
         style="font-style:normal;font-variant:normal;font-weight:bold;font-stretch:normal;font-size:8.25193119px;line-height:125%;font-family:'Segoe UI';-inkscape-font-specification:'Segoe UI Bold';text-align:center;letter-spacing:0px;word-spacing:0px;text-anchor:middle;fill:#1a1a1a;fill-opacity:1;stroke:none"
         id="path6540-4-8"
         inkscape:connector-curvature="0" />
      <path
         d="m 328.72344,341.76049 -4.5774,2.2915 -1.1852,-2.139 -0.061,0.033 c -0.1267,2.1947 -1.2209,3.8081 -3.2824,4.8402 -1.5207,0.7612 -2.9444,0.9504 -4.2713,0.5676 -1.3267,-0.3829 -2.3691,-1.2582 -3.127,-2.626 -1.6019,-2.8907 -0.7252,-5.461 2.6303,-7.7107 l 3.9575,-2.6689 c -0.9031,-1.6297 -2.2834,-1.9796 -4.1408,-1.0497 -1.8677,0.935 -3.3506,2.3527 -4.4486,4.253 l -1.9191,-3.4631 c 0.4909,-0.667 1.2507,-1.4191 2.2795,-2.2563 1.0288,-0.8373 2.0229,-1.4959 2.9823,-1.9762 4.4702,-2.2378 7.8797,-1.2372 10.2288,3.0019 z m -7.901,-3.7769 -0.5563,-1.004 -2.654,1.7747 c -1.4642,0.9808 -1.8764,2.0484 -1.2368,3.2027 0.2903,0.5239 0.7195,0.8573 1.2877,1.0004 0.5682,0.1428 1.1788,0.051 1.832,-0.276 0.9083,-0.4547 1.483,-1.1234 1.7239,-2.0061 0.2409,-0.8826 0.1087,-1.7799 -0.3963,-2.6918 z"
         style="font-style:normal;font-variant:normal;font-weight:bold;font-stretch:normal;font-size:8.25193119px;line-height:125%;font-family:'Segoe UI';-inkscape-font-specification:'Segoe UI Bold';text-align:center;letter-spacing:0px;word-spacing:0px;text-anchor:middle;fill:#1a1a1a;fill-opacity:1;stroke:none"
         id="path6542-9-5"
         inkscape:connector-curvature="0" />
      <path
         d="m 331.51774,340.13939 -1.5516,-3.9433 c 1.0327,0.1833 2.0141,0.2441 2.9443,0.1825 0.9303,-0.061 1.7682,-0.2245 2.5136,-0.4897 0.9076,-0.3224 1.5769,-0.6951 2.008,-1.1176 0.431,-0.4225 0.5516,-0.8749 0.3615,-1.3576 -0.1211,-0.3082 -0.3409,-0.5225 -0.6596,-0.6435 -0.3186,-0.1207 -0.6944,-0.1922 -1.1277,-0.2138 -0.4334,-0.02 -0.8958,-0.016 -1.3872,0.02 -0.4915,0.033 -0.9728,0.047 -1.4439,0.041 -0.752,0 -1.4328,-0.05 -2.0422,-0.1432 -0.6095,-0.093 -1.1551,-0.2596 -1.6368,-0.498 -0.4818,-0.2384 -0.9047,-0.5622 -1.2689,-0.9712 -0.3641,-0.409 -0.6735,-0.937 -0.928,-1.5839 -0.3474,-0.8831 -0.444,-1.7151 -0.2894,-2.4958 0.1545,-0.7806 0.4897,-1.4938 1.0054,-2.1395 0.5157,-0.6457 1.171,-1.2181 1.966,-1.7172 0.795,-0.4991 1.6624,-0.9157 2.6024,-1.2499 0.7346,-0.2612 1.5013,-0.4722 2.3,-0.6332 0.7987,-0.1608 1.6058,-0.2694 2.4213,-0.3253 l 1.4789,3.7584 c -0.7897,-0.1289 -1.5899,-0.1518 -2.4007,-0.069 -0.8108,0.083 -1.5727,0.2519 -2.2858,0.5053 -0.3349,0.1192 -0.6398,0.2596 -0.9147,0.4217 -0.2748,0.1621 -0.5046,0.3376 -0.6891,0.5259 -0.1842,0.1886 -0.3083,0.3906 -0.371,0.606 -0.063,0.2155 -0.052,0.4311 0.035,0.6467 0.113,0.2878 0.3074,0.4995 0.5826,0.6357 0.2753,0.1363 0.5989,0.2233 0.9708,0.2608 0.3719,0.037 0.7729,0.047 1.2029,0.029 0.43,-0.016 0.8583,-0.033 1.285,-0.044 0.7695,-0.016 1.4823,0.012 2.1384,0.083 0.656,0.071 1.2519,0.2163 1.7877,0.4356 0.5358,0.2191 1.0039,0.5327 1.4046,0.9404 0.4006,0.4078 0.7322,0.9454 0.9948,1.6129 0.3676,0.9345 0.4684,1.8087 0.3023,2.6228 -0.1662,0.8141 -0.5212,1.5548 -1.0652,2.2223 -0.5441,0.6674 -1.2406,1.2603 -2.0895,1.7786 -0.8491,0.5184 -1.7706,0.9542 -2.7645,1.3075 -1.8259,0.6491 -3.6218,0.9831 -5.3877,1.0021 z"
         style="font-style:normal;font-variant:normal;font-weight:bold;font-stretch:normal;font-size:8.25193119px;line-height:125%;font-family:'Segoe UI';-inkscape-font-specification:'Segoe UI Bold';text-align:center;letter-spacing:0px;word-spacing:0px;text-anchor:middle;fill:#1a1a1a;fill-opacity:1;stroke:none"
         id="path6544-6-9"
         inkscape:connector-curvature="0" />
      <path
         d="m 355.72643,313.36899 c -0.9059,0.1673 -1.6998,0.049 -2.3819,-0.3555 -0.6821,-0.4045 -1.0991,-0.9779 -1.2512,-1.72051 -0.1563,-0.764 0,-1.4416 0.4829,-2.0328 0.4783,-0.591 1.1704,-0.9703 2.0762,-1.1378 0.9171,-0.1694 1.7111,-0.065 2.3821,0.3134 0.6709,0.3784 1.0846,0.9499 1.241,1.714 0.1584,0.7749 0,1.46271 -0.4678,2.06341 -0.4704,0.6008 -1.1642,0.9861 -2.0813,1.1557 z m 6.5687,18.6554 -5.3669,0.9925 -3.3839,-16.5303 5.3669,-0.9925 z"
         style="font-style:normal;font-variant:normal;font-weight:bold;font-stretch:normal;font-size:8.25193119px;line-height:125%;font-family:'Segoe UI';-inkscape-font-specification:'Segoe UI Bold';text-align:center;letter-spacing:0px;word-spacing:0px;text-anchor:middle;fill:#1a1a1a;fill-opacity:1;stroke:none"
         id="path6546-3-3"
         inkscape:connector-curvature="0" />
      <path
         d="m 383.91703,329.86709 -5.4339,0.4008 -0.7616,-9.3296 c -0.2126,-2.6015 -1.2961,-3.8301 -3.2512,-3.6859 -0.943,0.069 -1.6912,0.4711 -2.2445,1.2047 -0.5533,0.7335 -0.7866,1.6305 -0.7001,2.6908 l 0.7816,9.5754 -5.4511,0.402 -1.3706,-16.7897 5.4512,-0.4021 0.2169,2.6562 0.069,0 c 1.1326,-2.1399 2.941,-3.3015 5.4251,-3.4846 3.9101,-0.2886 6.0535,1.8738 6.4301,6.4866 z"
         style="font-style:normal;font-variant:normal;font-weight:bold;font-stretch:normal;font-size:8.25193119px;line-height:125%;font-family:'Segoe UI';-inkscape-font-specification:'Segoe UI Bold';text-align:center;letter-spacing:0px;word-spacing:0px;text-anchor:middle;fill:#1a1a1a;fill-opacity:1;stroke:none"
         id="path6548-7-5"
         inkscape:connector-curvature="0" />
      <path
         d="m 412.12063,311.03528 c -0.6659,-0.3408 -1.3194,-0.5474 -1.9608,-0.6203 -1.741,-0.198 -2.7244,0.6014 -2.9503,2.39761 l -0.2237,1.7799 4.0201,0.4568 -0.4785,3.8047 -4.0201,-0.4568 -1.6247,12.9165 -5.4117,-0.615 1.6246,-12.9164 -2.955,-0.336 0.4786,-3.8047 2.955,0.3359 0.2606,-2.0737 c 0.2396,-1.90511 1.0855,-3.36591 2.5377,-4.38241 1.4522,-1.01639 3.3007,-1.39709 5.5456,-1.14199 1.0995,0.1249 2.0021,0.3379 2.7078,0.6389 z"
         style="font-style:normal;font-variant:normal;font-weight:bold;font-stretch:normal;font-size:8.25193119px;line-height:125%;font-family:'Segoe UI';-inkscape-font-specification:'Segoe UI Bold';text-align:center;letter-spacing:0px;word-spacing:0px;text-anchor:middle;fill:#1a1a1a;fill-opacity:1;stroke:none"
         id="path6550-8-6"
         inkscape:connector-curvature="0" />
      <path
         d="m 425.54313,322.80839 c -0.5636,-0.4681 -1.2732,-0.7931 -2.1286,-0.975 -1.1595,-0.2465 -2.1608,-0.037 -3.0037,0.6338 -0.843,0.669 -1.4282,1.699 -1.7555,3.0898 l -1.8468,7.848 -5.3358,-1.1344 3.8675,-16.4341 5.3357,1.1343 -0.7176,3.0494 0.067,0.016 c 1.368,-2.046 3.1495,-2.8356 5.3446,-2.369 0.5629,0.1196 0.9867,0.2771 1.2717,0.4726 z"
         style="font-style:normal;font-variant:normal;font-weight:bold;font-stretch:normal;font-size:8.25193119px;line-height:125%;font-family:'Segoe UI';-inkscape-font-specification:'Segoe UI Bold';text-align:center;letter-spacing:0px;word-spacing:0px;text-anchor:middle;fill:#1a1a1a;fill-opacity:1;stroke:none"
         id="path6552-8-5"
         inkscape:connector-curvature="0" />
      <path
         d="m 442.68123,333.85929 -10.8881,-3.6857 c -0.6891,2.362 0.4063,4.0304 3.2856,5.0052 1.8365,0.6216 3.6049,0.7547 5.3054,0.3992 l -1.3235,3.5322 c -1.8372,0.2624 -3.9891,-0.025 -6.4557,-0.8586 -2.6949,-0.9122 -4.5206,-2.3304 -5.4772,-4.2545 -0.9565,-1.924 -0.9588,-4.1564 -0.01,-6.6972 0.9869,-2.6336 2.5728,-4.4477 4.7576,-5.4422 2.1848,-0.9945 4.4508,-1.0945 6.798,-0.3 2.434,0.824 4.0592,2.1481 4.8757,3.9724 0.8164,1.8242 0.7834,3.9137 -0.099,6.2686 z m -3.6496,-4.6221 c 0.8514,-2.2723 0.3101,-3.7357 -1.6242,-4.3905 -0.8258,-0.2796 -1.6622,-0.1959 -2.509,0.2506 -0.847,0.4466 -1.5175,1.1332 -2.0117,2.0599 z"
         style="font-style:normal;font-variant:normal;font-weight:bold;font-stretch:normal;font-size:8.25193119px;line-height:125%;font-family:'Segoe UI';-inkscape-font-specification:'Segoe UI Bold';text-align:center;letter-spacing:0px;word-spacing:0px;text-anchor:middle;fill:#1a1a1a;fill-opacity:1;stroke:none"
         id="path6554-2-97"
         inkscape:connector-curvature="0" />
      <path
         d="m 460.68363,342.60139 -10.2385,-5.0973 c -1.03,2.2472 -0.1911,4.0448 2.5166,5.3929 1.7269,0.8597 3.4583,1.2267 5.1945,1.1009 l -1.8305,3.3215 c -1.8577,0.016 -3.9463,-0.5538 -6.2658,-1.7085 -2.5341,-1.2616 -4.1332,-2.9086 -4.7971,-4.9409 -0.664,-2.0324 -0.3375,-4.2431 0.979,-6.6323 1.3648,-2.4766 3.2021,-4.0619 5.5118,-4.7562 2.3097,-0.6942 4.5682,-0.4919 6.7753,0.6069 2.2888,1.1395 3.7032,2.6667 4.2431,4.5816 0.5399,1.9149 0.1997,3.9795 -1.0206,6.1938 z m -2.9333,-5.062 c 1.1774,-2.1366 0.8567,-3.6577 -0.9621,-4.5633 -0.7765,-0.3864 -1.617,-0.4151 -2.5213,-0.086 -0.9043,0.3293 -1.6692,0.9202 -2.2949,1.7721 z"
         style="font-style:normal;font-variant:normal;font-weight:bold;font-stretch:normal;font-size:8.25193119px;line-height:125%;font-family:'Segoe UI';-inkscape-font-specification:'Segoe UI Bold';text-align:center;letter-spacing:0px;word-spacing:0px;text-anchor:middle;fill:#1a1a1a;fill-opacity:1;stroke:none"
         id="path6556-9-7"
         inkscape:connector-curvature="0" />
      <path
         d="m 474.06863,360.13519 -4.4111,-3.0705 1.4415,-1.8708 -0.056,-0.041 c -2.1364,0.7687 -4.1772,0.4761 -6.1221,-0.8778 -1.7869,-1.2437 -2.7629,-2.8438 -2.9282,-4.8003 -0.1653,-1.9564 0.58,-4.0094 2.2362,-6.1588 1.7311,-2.2467 3.7183,-3.6289 5.9616,-4.1466 2.2432,-0.5176 4.3374,-0.1 6.2823,1.2543 1.8427,1.2827 2.643,2.8046 2.4011,4.566 l 0.056,0.041 6.2259,-8.0802 4.4112,3.0705 z m 0.7638,-9.6197 0.7872,-1.0216 c 0.6815,-0.8845 0.9773,-1.8065 0.8874,-2.766 -0.09,-0.9595 -0.5677,-1.7406 -1.4332,-2.343 -0.9771,-0.6802 -2.0214,-0.8465 -3.1327,-0.4989 -1.1113,0.3473 -2.1577,1.1581 -3.1391,2.4318 -0.9201,1.1942 -1.3637,2.2987 -1.3307,3.3136 0.034,1.015 0.5193,1.8496 1.4593,2.5039 0.8933,0.6218 1.8839,0.7882 2.9718,0.499 1.0877,-0.289 2.0644,-0.9954 2.93,-2.1188 z"
         style="font-style:normal;font-variant:normal;font-weight:bold;font-stretch:normal;font-size:8.25193119px;line-height:125%;font-family:'Segoe UI';-inkscape-font-specification:'Segoe UI Bold';text-align:center;letter-spacing:0px;word-spacing:0px;text-anchor:middle;fill:#1a1a1a;fill-opacity:1;stroke:none"
         id="path6558-1-5"
         inkscape:connector-curvature="0" />
      <path
         d="m 483.20683,369.00879 c -2.0783,-1.9939 -3.1242,-4.1149 -3.1377,-6.3632 -0.013,-2.2483 0.9877,-4.3216 3.0035,-6.2198 2.0814,-1.96 4.327,-2.9017 6.7368,-2.8251 2.4099,0.077 4.6662,1.1234 6.7689,3.1406 2.0701,1.9861 3.1059,4.0975 3.1072,6.3341 0,2.2366 -0.9651,4.2654 -2.8989,6.0865 -2.0896,1.9676 -4.3475,2.9403 -6.774,2.918 -2.4264,-0.02 -4.695,-1.0461 -6.8058,-3.0711 z m 10.3239,-9.5365 c -0.9093,-0.8723 -1.9311,-1.2529 -3.0654,-1.1416 -1.1343,0.1114 -2.2792,0.7109 -3.4345,1.7989 -2.4173,2.2764 -2.6599,4.3413 -0.7278,6.195 1.8429,1.768 4.0058,1.4829 6.4887,-0.8551 2.3517,-2.2146 2.5981,-4.2137 0.739,-5.9972 z"
         style="font-style:normal;font-variant:normal;font-weight:bold;font-stretch:normal;font-size:8.25193119px;line-height:125%;font-family:'Segoe UI';-inkscape-font-specification:'Segoe UI Bold';text-align:center;letter-spacing:0px;word-spacing:0px;text-anchor:middle;fill:#1a1a1a;fill-opacity:1;stroke:none"
         id="path6560-3-5"
         inkscape:connector-curvature="0" />
      <path
         d="m 508.45983,399.96159 -3.0074,-4.3203 8.4271,-5.2995 c 2.1452,-1.3491 2.6958,-2.7734 1.6521,-4.273 -0.4965,-0.7132 -1.223,-1.0911 -2.1794,-1.1338 -0.9564,-0.043 -1.9156,0.2384 -2.8776,0.8434 l -8.2683,5.1997 -3.017,-4.334 8.5136,-5.354 c 2.0876,-1.3128 2.619,-2.7052 1.5942,-4.1773 -0.5156,-0.7407 -1.2355,-1.1391 -2.1599,-1.1954 -0.9243,-0.056 -1.9156,0.2482 -2.9738,0.9138 l -8.2106,5.1634 -3.017,-4.334 14.7762,-9.2923 3.0169,4.334 -2.3087,1.4519 0.039,0.055 c 1.1008,-0.048 2.1804,0.1767 3.2392,0.6744 1.0587,0.4976 1.9222,1.2265 2.5906,2.1866 1.3811,1.984 1.4076,3.9196 0.079,5.8066 2.5821,-0.086 4.5956,0.9092 6.0404,2.9848 2.1259,3.0539 1.2071,5.8271 -2.7563,8.3196 z"
         style="font-style:normal;font-variant:normal;font-weight:bold;font-stretch:normal;font-size:8.25193119px;line-height:125%;font-family:'Segoe UI';-inkscape-font-specification:'Segoe UI Bold';text-align:center;letter-spacing:0px;word-spacing:0px;text-anchor:middle;fill:#1a1a1a;fill-opacity:1;stroke:none"
         id="path6562-5-0"
         inkscape:connector-curvature="0" />
      <path
         transform="matrix(0,0.58715644,-0.58715644,0,434.92423,264.62509)"
         inkscape:connector-curvature="0"
         id="path4271-9-5-0-5-2-8"
         d="m 663.29165,159.51469 c -0.20843,0.0797 -9.64051,0.11002 -20.9602,0.0676 l -20.58124,-0.0772 -0.0597,-15.06307 -0.0597,-15.06311 0.65623,0.86883 c 0.36098,0.4779 1.06495,1.41635 1.56444,2.08548 1.35529,1.81572 3.60851,3.37964 5.95228,4.13127 l 2.08795,0.66966 0.14913,4.77248 0.14913,4.77247 2.83365,0 2.83365,0 0.14913,-4.90124 0.14912,-4.90119 1.64057,-0.96239 c 3.32834,-1.95248 4.85709,-4.66788 7.3052,-12.97573 0.89877,-3.05002 1.85036,-6.0701 2.11466,-6.7113 0.92646,-2.24765 2.22218,-3.00295 3.74935,-2.18564 1.70738,0.91371 2.32973,5.56504 1.0736,8.02339 -0.94165,1.84279 -1.83675,2.39486 -4.27336,2.63564 l -2.06506,0.20409 0,10.88717 0,10.8872 7.90438,0.14913 7.90443,0.14913 0.0806,6.19634 c 0.0624,4.79474 -0.005,6.22903 -0.29825,6.34104 z m -0.44297,-52.60418 c -0.26756,-0.38162 -0.96849,-1.38389 -1.55763,-2.22718 -0.58919,-0.84334 -1.87468,-2.097 -2.85672,-2.78587 -2.48239,-1.74135 -4.66061,-2.346955 -8.38341,-2.330685 -2.78555,0.0123 -3.1697,0.0876 -4.97671,0.977235 -4.06703,2.00216 -5.98892,5.26688 -8.24375,14.00356 -1.98018,7.67241 -3.1637,9.88498 -4.81497,9.00125 -0.76092,-0.40722 -1.74944,-2.49842 -1.7561,-3.71491 -0.0138,-2.49343 1.44994,-4.80712 3.27714,-5.18084 l 1.03966,-0.21262 0,-6.54994 0,-6.54989 -1.64052,0.0896 c -2.48466,0.13567 -4.52193,0.82193 -6.59947,2.22291 -1.7207,1.16039 -2.61932,2.21877 -4.643,5.46868 -0.2787,0.44753 -0.35912,-1.98275 -0.37287,-11.26836 -0.01,-6.511438 0.0831,-11.899707 0.20619,-11.973889 0.12305,-0.0742 5.32426,-1.36595 11.55829,-2.870521 13.52238,-3.26371 12.37859,-2.947414 12.37859,-3.423353 0,-0.259383 -2.34563,-0.953121 -7.08412,-2.095188 -3.8963,-0.93908 -9.29884,-2.265545 -12.00573,-2.947753 l -4.9216,-1.240346 0,-12.826026 0,-12.825984 6.93499,-0.08001 c 5.44032,-0.06284 6.93495,-0.163448 6.93495,-0.466802 0,-0.212655 -3.15428,-2.906786 -7.00951,-5.986917 l -7.00956,-5.600206 0,-7.579287 c 0,-4.16863 0.11253,-7.57928 0.2501,-7.57928 0.13757,0 3.59386,3.101454 7.68069,6.892164 4.08678,3.790662 7.72275,7.029159 8.07987,7.196613 0.5712,0.267852 2.16181,-0.740179 13.21218,-8.373323 7.76839,-5.366049 12.61662,-8.53745 12.70389,-8.310044 0.0776,0.202285 0.1052,3.782244 0.0613,7.955539 l -0.0798,7.587754 -7.45699,4.708992 c -8.99359,5.679437 -8.68505,5.440369 -8.12018,6.29108 0.23626,0.355885 1.06584,1.186665 1.84356,1.84623 l 1.41392,1.199267 6.15985,0.149131 6.15984,0.149131 0,9.544939 0,9.544901 -13.04972,0.07772 c -10.80432,0.06429 -13.04969,0.14794 -13.04969,0.485836 0,0.263282 1.03206,0.688923 2.90822,1.199406 1.5995,0.435259 7.47188,2.028711 13.04973,3.540993 l 10.14146,2.749613 0.0822,4.700815 c 0.0811,4.643361 0.0739,4.704373 -0.59657,4.989015 -0.52752,0.223982 -16.26933,4.519897 -24.01906,6.554751 -0.75593,0.198524 -1.2677,0.507581 -1.2677,0.765636 0,0.370301 1.86227,0.444012 12.9006,0.51053 l 12.90055,0.07772 0.062,7.606118 c 0.0579,7.106915 0.03,7.560585 -0.42436,6.912145 z"
         style="fill:#000000;fill-opacity:1;filter:url(#filter8573-6-8-7-3-6)" />
    </g>
    <g
       id="g4300"
       style="fill:#ececec"
       inkscape:export-xdpi="300"
       inkscape:export-ydpi="300"
       transform="translate(-1280.8734,-167.68532)">
      <path
         inkscape:export-ydpi="300"
         inkscape:export-xdpi="300"
         inkscape:export-filename="G:\GLUG\FSMK\Camp 14.07 \tshirts\FINALFINAL.png"
         id="path3367-0-7-8"
         d="m 525.0143,361.34185 c -73.68939,0 -133.52229,59.69871 -133.52229,133.3882 0,73.6895 59.8329,133.3882 133.52229,133.3882 2.0319,0 4.0289,-0.043 6.0387,-0.1332 -0.3186,-2.2218 -0.5854,-4.97389 -0.9394,-9.12509 -0.643,-7.54021 -2.175,-19.1972 -3.489,-25.8995 -3.4362,-17.5268 -3.5559,-17.97041 -2.6839,-20.26301 0.4357,-1.1453 4.511,-6.17639 8.991,-11.13829 l 8.1858,-8.99121 1.7445,-8.99069 c 1.6187,-8.3333 1.526,-9.4798 0,-16.23761 -0.9031,-3.9987 -1.6103,-8.2328 -1.6103,-9.52749 0,-8.0417 -9.1107,0.538 -9.2594,8.7224 -0.035,1.8786 -0.8763,5.9191 -1.8787,8.9911 -1.8096,5.5456 -1.8236,5.5906 -2.9522,2.8179 -0.6252,-1.5357 -1.7635,-2.8179 -2.5497,-2.8179 -1.3869,0 -12.4244,14.7149 -15.4322,20.53139 -2.1983,4.25081 -2.806,10.7238 -1.6103,17.1767 1.1066,5.9728 0.4169,42.5395 -0.8052,42.5395 -0.6437,0 -6.2325,-42.8727 -6.1729,-47.3704 0.035,-2.668 -5.1512,-7.0709 -13.2851,-11.4063 -5.06509,-2.6997 -6.01449,-3.7737 -7.38059,-7.7831 -3.341,-9.805 -12.6425,-21.7394 -16.9084,-21.7394 -2.118,0 -2.1326,0.3178 -1.4761,4.6966 l 0.6709,4.6969 -2.2813,-1.6103 c -2.6615,-1.8645 -6.0387,-2.2901 -6.0387,-0.6712 0,0.5986 3.032,7.1263 6.7097,14.3589 6.3777,12.5421 7.1211,13.3666 15.0296,19.9946 12.56189,10.5285 11.88259,9.4395 11.00389,19.9951 -0.6961,8.3616 -0.8451,9.0942 -2.9523,9.3935 -1.73789,0.2448 -2.28129,-0.146 -2.28129,-1.7447 0,-1.1556 -0.6737,-2.1471 -1.3419,-2.1471 -1.2219,0 -8.2366,-4.4802 -10.7354,-6.8437 -0.7381,-0.6982 -2.1632,-1.2079 -3.2207,-1.2079 -1.0575,0 -2.4222,-0.8881 -2.9522,-1.8787 -3.0135,-5.631 -7.0398,-30.2659 -5.2336,-32.072 0.6549,-0.6549 0.6201,-1.509 -0.2683,-2.5499 -0.7454,-0.8734 -2.0763,-3.6595 -2.9523,-6.1729 -0.876,-2.5134 -2.9089,-8.28 -4.5626,-12.7481 -1.6536,-4.4681 -3.3433,-10.1008 -3.7574,-12.6142 -0.8881,-5.3901 -4.943,-12.7709 -8.1858,-14.8957 -3.6902,-2.4176 -3.9607,-5.3819 -0.5367,-6.5753 2.3406,-0.8159 3.1361,-1.9169 4.0258,-5.7705 0.6036,-2.6143 1.0545,-6.6225 1.0735,-8.8567 0.043,-4.9117 -1.4785,-15.5261 -2.5497,-17.982 -0.5805,-1.3307 -0.2044,-1.7326 1.2078,-1.7442 3.2351,-0.043 4.418,-1.5155 7.5148,-9.1252 3.8279,-9.4064 3.7508,-11.748 0,-13.6877 -1.9713,-1.0195 -3.028,-2.5662 -3.489,-4.831 -0.5894,-2.8955 -0.3539,-3.8132 2.4154,-6.3073 2.3029,-2.0741 3.4995,-2.5391 4.2942,-1.7443 1.8634,1.8633 3.952,1.2883 8.0516,-2.4154 2.1637,-1.9548 4.7753,-3.6235 5.9045,-3.6235 1.2058,0 2.4328,-0.9151 2.9523,-2.2811 1.5882,-4.1774 3.6376,-5.1517 7.1122,-3.355 4.0532,2.096 5.74,2.0432 8.18579,-0.4037 1.3874,-1.3874 3.4931,-2.0032 6.4413,-2.0127 2.3737,0 5.3945,-0.3177 6.7096,-0.6711 2.275,-0.6089 2.3609,-0.9984 1.8788,-7.3805 -0.2787,-3.6895 -0.8206,-7.662 -1.2078,-8.8567 -0.7021,-2.1664 -0.8128,-2.2123 5.0994,-0.6712 3.2604,0.8498 10.3893,1.7555 15.8348,2.0131 l 9.9303,0.5368 0,-6.0389 c 0,-5.5257 0.3264,-6.1802 3.2206,-8.32 2.1436,-1.5846 3.9291,-2.1072 5.7703,-1.7443 3.917,0.7717 12.2655,-7.9945 13.2852,-13.9561 0.3439,-2.0114 0.5508,-2.9806 1.0735,-3.489 -8.8543,-1.8508 -17.9714,-2.8183 -27.3754,-2.8183 z m 51.9328,10.4671 c -0.4213,0.736 -0.8127,1.60171 -1.6103,2.54951 -1.3963,1.65969 -2.5497,3.626 -2.5497,4.4285 0,0.80219 -0.5611,2.31939 -1.2077,3.3547 -1.5608,2.49919 -0.4706,4.97349 2.6838,6.1729 3.091,1.1753 3.2212,2.21529 0.5368,3.8918 -2.5071,1.5656 -7.1122,8.67039 -7.1122,11.00379 0,0.9525 0.8091,2.73851 1.8787,3.8914 1.7967,1.9371 1.8938,2.7616 0.9393,11.6751 -1.0843,10.1257 -1.8359,11.8403 -5.6361,13.2849 -1.2796,0.4865 -2.2813,1.5785 -2.2813,2.4155 0,1.7876 5.0139,4.6969 8.1858,4.6969 1.9317,0 2.1655,0.3093 1.6103,3.08631 -0.3491,1.74559 -0.6709,5.39739 -0.6709,8.0516 l 0,4.831 -4.4284,-0.53691 c -4.8668,-0.54829 -10.964,1.0431 -12.8826,3.3551 -0.9297,1.12 -0.8859,2.1553 0,4.29421 0.9662,2.33259 0.7679,3.44439 -0.9393,6.97809 -2.7058,5.6 -2.5197,7.19401 1.0735,11.9429 5.3287,7.0425 3.3624,12.66411 -3.8916,11.2723 -7.0128,-1.34539 -7.8284,-1.1814 -8.1858,1.3419 -0.2005,1.4167 0.3754,2.9523 1.4761,3.75741 1.7615,1.28829 1.8226,1.46299 0.134,6.1729 -2.5871,7.21809 -2.3907,10.0879 1.2078,12.7486 2.0495,1.515 2.6992,2.534 2.0128,3.2206 -1.6485,1.6486 -1.1869,3.6441 1.4762,6.30689 3.0766,3.07681 6.324,3.15201 9.3935,0.2663 1.9414,-1.8238 2.8335,-1.98349 4.831,-1.07359 2.9439,1.3415 3.8544,4.3595 2.2813,7.5148 -2.0624,4.1371 -9.0018,3.7235 -11.0039,-0.6707 -1.5339,-3.36661 -5.9136,-3.57671 -5.9045,-0.2662 0,1.2564 0.6446,3.63879 1.4761,5.2333 0.9837,1.88599 1.3376,4.21939 0.9394,6.7096 -0.3813,2.3837 -0.1791,4.1203 0.5367,4.5626 2.0001,1.2363 7.3754,-0.6106 7.9175,-2.6839 1.0105,-3.8643 10.467,-0.3521 10.467,3.89189 0,3.20641 13.2547,-1.3596 15.9691,-5.5022 1.4584,-2.22569 1.7232,-2.2815 3.3548,-0.8051 1.1817,1.0697 2.6573,1.384 4.4284,0.9395 2.5509,-0.6402 2.6838,-0.468 2.6838,3.623 0,5.1213 2.7631,8.1345 7.7832,8.1861 3.2679,0.043 3.3549,0.06 3.3549,4.9649 0,4.5351 0.1945,5.0306 2.9522,6.1729 1.6571,0.6866 3.4671,1.7426 4.0258,2.4154 1.6831,2.0282 -2.3688,8.971 -8.4542,14.2245 -5.185,4.4767 -5.7589,4.7035 -7.9173,3.3551 -1.2694,-0.7932 -4.1627,-1.6765 -6.4413,-2.0131 -4.6147,-0.6815 -6.8774,0.4376 -8.8568,4.4286 -0.7841,1.5807 -2.2913,2.6164 -4.0258,2.8178 -3.2824,0.3822 -4.318,3.3705 -3.3548,9.3936 0.6622,4.1417 -0.3199,5.6867 -5.0994,8.7227 -1.9095,1.2127 -1.9384,1.2848 0,2.8179 1.0842,0.8575 3.0504,1.6103 4.2942,1.6103 2.6767,0 4.2451,0.6948 4.9652,1.7447 46.5931,-20.8126 79.0398,-67.5192 79.0398,-121.8475 0,-55.267 -33.5665,-102.6658 -81.4553,-122.9211 z m -44.1496,94.0693 c -0.2297,0 -0.5215,0.043 -0.671,0.1331 -0.5978,0.36931 -3.4997,4.4548 -6.5754,9.12521 -5.904,8.96489 -19.1931,22.80809 -21.8735,22.81279 -0.8724,0 -2.6529,-1.27659 -3.8917,-2.95219 -2.928,-3.9606 -4.5447,-3.81451 -7.1122,0.53679 -1.1534,1.9547 -2.5431,3.48901 -3.0865,3.48901 -0.5433,0 -3.022,-1.6627 -5.5019,-3.75741 -2.47979,-2.0943 -8.27099,-7.094 -12.88249,-11.00389 -15.0114,-12.72621 -16.8752,-13.34461 -15.8349,-5.50171 1.4135,10.6547 8.5651,27.0834 14.2246,32.7432 3.1007,3.1008 4.2121,3.5105 10.1987,3.8914 3.67839,0.2362 7.22919,1.0563 7.91729,1.7447 0.9914,0.9911 -0.021,1.1642 -4.8309,0.9391 -5.97049,-0.2791 -6.12129,-0.2361 -6.44129,2.5499 -0.5483,4.7764 4.1165,11.3277 10.19869,14.35851 6.0462,3.01319 9.1409,3.31809 11.0038,1.0736 0.9019,-1.0865 1.547,-1.2711 2.2813,-0.5368 2.7119,2.7117 11.0045,-0.2749 16.64,-6.0385 4.0549,-4.1478 4.9711,-7.584 2.8181,-10.8699 -1.5503,-2.3657 -2.0171,-2.5318 -7.2465,-1.8787 -3.6232,0.4526 -5.3676,0.3822 -4.9651,-0.2662 0.3427,-0.554 2.9729,-1.3557 5.9045,-1.7443 2.9315,-0.3908 6.7884,-1.3102 8.5884,-2.1471 4.353,-2.0243 8.7919,-9.114 10.7354,-16.9084 5.4649,-21.9162 5.8952,-25.79861 2.8181,-28.5834 -0.8114,-0.73431 -1.7261,-1.1774 -2.4155,-1.2075 z"
         style="fill:#ececec;fill-opacity:1;fill-rule:nonzero"
         inkscape:connector-curvature="0" />
      <path
         transform="matrix(0,0.58715644,-0.58715644,0,573.3058,285.15836)"
         inkscape:connector-curvature="0"
         id="path4271-9-5-0-5-2-8-0"
         d="m 663.29165,159.51469 c -0.20843,0.0797 -9.64051,0.11002 -20.9602,0.0676 l -20.58124,-0.0772 -0.0597,-15.06307 -0.0597,-15.06311 0.65623,0.86883 c 0.36098,0.4779 1.06495,1.41635 1.56444,2.08548 1.35529,1.81572 3.60851,3.37964 5.95228,4.13127 l 2.08795,0.66966 0.14913,4.77248 0.14913,4.77247 2.83365,0 2.83365,0 0.14913,-4.90124 0.14912,-4.90119 1.64057,-0.96239 c 3.32834,-1.95248 4.85709,-4.66788 7.3052,-12.97573 0.89877,-3.05002 1.85036,-6.0701 2.11466,-6.7113 0.92646,-2.24765 2.22218,-3.00295 3.74935,-2.18564 1.70738,0.91371 2.32973,5.56504 1.0736,8.02339 -0.94165,1.84279 -1.83675,2.39486 -4.27336,2.63564 l -2.06506,0.20409 0,10.88717 0,10.8872 7.90438,0.14913 7.90443,0.14913 0.0806,6.19634 c 0.0624,4.79474 -0.005,6.22903 -0.29825,6.34104 z m -0.44297,-52.60418 c -0.26756,-0.38162 -0.96849,-1.38389 -1.55763,-2.22718 -0.58919,-0.84334 -1.87468,-2.097 -2.85672,-2.78587 -2.48239,-1.74135 -4.66061,-2.346955 -8.38341,-2.330685 -2.78555,0.0123 -3.1697,0.0876 -4.97671,0.977235 -4.06703,2.00216 -5.98892,5.26688 -8.24375,14.00356 -1.98018,7.67241 -3.1637,9.88498 -4.81497,9.00125 -0.76092,-0.40722 -1.74944,-2.49842 -1.7561,-3.71491 -0.0138,-2.49343 1.44994,-4.80712 3.27714,-5.18084 l 1.03966,-0.21262 0,-6.54994 0,-6.54989 -1.64052,0.0896 c -2.48466,0.13567 -4.52193,0.82193 -6.59947,2.22291 -1.7207,1.16039 -2.61932,2.21877 -4.643,5.46868 -0.2787,0.44753 -0.35912,-1.98275 -0.37287,-11.26836 -0.01,-6.511438 0.0831,-11.899707 0.20619,-11.973889 0.12305,-0.0742 5.32426,-1.36595 11.55829,-2.870521 13.52238,-3.26371 12.37859,-2.947414 12.37859,-3.423353 0,-0.259383 -2.34563,-0.953121 -7.08412,-2.095188 -3.8963,-0.93908 -9.29884,-2.265545 -12.00573,-2.947753 l -4.9216,-1.240346 0,-12.826026 0,-12.825984 6.93499,-0.08001 c 5.44032,-0.06284 6.93495,-0.163448 6.93495,-0.466802 0,-0.212655 -3.15428,-2.906786 -7.00951,-5.986917 l -7.00956,-5.600206 0,-7.579287 c 0,-4.16863 0.11253,-7.57928 0.2501,-7.57928 0.13757,0 3.59386,3.101454 7.68069,6.892164 4.08678,3.790662 7.72275,7.029159 8.07987,7.196613 0.5712,0.267852 2.16181,-0.740179 13.21218,-8.373323 7.76839,-5.366049 12.61662,-8.53745 12.70389,-8.310044 0.0776,0.202285 0.1052,3.782244 0.0613,7.955539 l -0.0798,7.587754 -7.45699,4.708992 c -8.99359,5.679437 -8.68505,5.440369 -8.12018,6.29108 0.23626,0.355885 1.06584,1.186665 1.84356,1.84623 l 1.41392,1.199267 6.15985,0.149131 6.15984,0.149131 0,9.544939 0,9.544901 -13.04972,0.07772 c -10.80432,0.06429 -13.04969,0.14794 -13.04969,0.485836 0,0.263282 1.03206,0.688923 2.90822,1.199406 1.5995,0.435259 7.47188,2.028711 13.04973,3.540993 l 10.14146,2.749613 0.0822,4.700815 c 0.0811,4.643361 0.0739,4.704373 -0.59657,4.989015 -0.52752,0.223982 -16.26933,4.519897 -24.01906,6.554751 -0.75593,0.198524 -1.2677,0.507581 -1.2677,0.765636 0,0.370301 1.86227,0.444012 12.9006,0.51053 l 12.90055,0.07772 0.062,7.606118 c 0.0579,7.106915 0.03,7.560585 -0.42436,6.912145 z"
         style="fill:#ececec;fill-opacity:1;filter:url(#filter8573-6-8-7-3-6-1)" />
    </g>
  </g>
</svg>
